<svg height="24" viewBox="0 0 24 24" width="24" xmlns="http://www.w3.org/2000/svg"><title/><g fill="none" fill-rule="evenodd"><path d="M17.2 6H21s2 0 2 2v10c0 2-2 2-2 2H3s-2 0-2-2V8c0-2 2-2 2-2h3.8l.939-1.565C7.882 4.196 8.224 4 8.5 4h7c.27 0 .617.195.761.435L17.2 6zM12 17a4.5 4.5 0 1 0 0-9 4.5 4.5 0 0 0 0 9zm0-1a3.5 3.5 0 1 0 0-7 3.5 3.5 0 0 0 0 7zm6-6a1 1 0 1 0 0-2 1 1 0 0 0 0 2zM4.222 4.5c-.123 0-.222.089-.222.2v.6c0 .11.1.2.222.2h1.556c.123 0 .222-.089.222-.2v-.6c0-.11-.1-.2-.222-.2H4.222z" fill="#000"/></g></svg>