<svg height="500" viewBox="0 0 500 500" width="500" xmlns="http://www.w3.org/2000/svg"><path clip-rule="evenodd" d="M31.949 431.711c0 20.078 16.264 36.34 36.34 36.34H431.71c20.078 0 36.34-16.262 36.34-36.34V159.145c0-20.078-16.262-36.342-36.34-36.342h-72.685V68.29c0-20.077-16.263-36.34-36.342-36.34H177.317c-20.079 0-36.342 16.264-36.342 36.34v54.513H68.29c-20.077 0-36.34 16.264-36.34 36.342v272.566zm281.65-308.909H186.401V97.367a19.935 19.935 0 0 1 19.991-19.991h87.215a19.936 19.936 0 0 1 19.991 19.991v25.435zM160.963 250h43.61v-43.608a19.933 19.933 0 0 1 19.989-19.991h50.877a19.936 19.936 0 0 1 19.987 19.991V250h43.607a19.936 19.936 0 0 1 19.992 19.991v50.875a19.934 19.934 0 0 1-19.992 19.986h-43.607v43.613a19.933 19.933 0 0 1-19.987 19.986h-50.877a19.931 19.931 0 0 1-19.989-19.986v-43.613h-43.61a19.93 19.93 0 0 1-19.989-19.986v-50.875A19.934 19.934 0 0 1 160.963 250z" fill="#010101" fill-rule="evenodd"/></svg>